<svg width="22" height="20" viewBox="0 0 22 20" fill="none" xmlns="http://www.w3.org/2000/svg">
<path d="M20.6328 4.64686C20.3187 3.91945 19.8657 3.26027 19.2992 2.70624C18.7323 2.15055 18.064 1.70895 17.3305 1.40545C16.5699 1.0895 15.7541 0.927778 14.9305 0.929673C13.775 0.929673 12.6477 1.24608 11.668 1.84374C11.4336 1.9867 11.2109 2.14374 11 2.31483C10.7891 2.14374 10.5664 1.9867 10.332 1.84374C9.35234 1.24608 8.225 0.929673 7.06953 0.929673C6.2375 0.929673 5.43125 1.08905 4.66953 1.40545C3.93359 1.71014 3.27031 2.14842 2.70078 2.70624C2.13359 3.25965 1.6805 3.91898 1.36719 4.64686C1.04141 5.40389 0.875 6.2078 0.875 7.03514C0.875 7.81561 1.03438 8.62889 1.35078 9.45624C1.61563 10.1476 1.99531 10.8648 2.48047 11.589C3.24922 12.7351 4.30625 13.9305 5.61875 15.1422C7.79375 17.1508 9.94766 18.5383 10.0391 18.5945L10.5945 18.9508C10.8406 19.1078 11.157 19.1078 11.4031 18.9508L11.9586 18.5945C12.05 18.5359 14.2016 17.1508 16.3789 15.1422C17.6914 13.9305 18.7484 12.7351 19.5172 11.589C20.0023 10.8648 20.3844 10.1476 20.6469 9.45624C20.9633 8.62889 21.1227 7.81561 21.1227 7.03514C21.125 6.2078 20.9586 5.40389 20.6328 4.64686Z" fill="#FA2C5A"/>
</svg>
